<?xml version="1.0" encoding="utf-8"?>
<!-- Generator: Adobe Illustrator 22.1.0, SVG Export Plug-In . SVG Version: 6.00 Build 0)  -->
<svg version="1.1" id="Layer_1" xmlns="http://www.w3.org/2000/svg" xmlns:xlink="http://www.w3.org/1999/xlink" x="0px" y="0px"
	 viewBox="0 0 25.6 25.6" enable-background="new 0 0 25.6 25.6" xml:space="preserve">
<path fill="#00C8A6" d="M359.1178-90.4949c-0.834-0.0564-1.3444-0.483-1.8199-0.9556c-3.6012-3.5793-7.1827-7.1785-10.8047-10.7365
	c-1.2987-1.2757-1.2432-2.4172,0.0771-3.5993c0.5575-0.4992,1.1018-1.0191,1.6032-1.5738c1.1601-1.2834,2.2386-1.1357,3.3876,0.0429
	c1.9753,2.0263,4.0667,3.944,5.9705,6.0338c1.1003,1.2078,1.7684,1.2069,2.9259,0.0161c4.757-4.8937,9.6169-9.6876,14.4534-14.5037
	c2.1919-2.1826,2.3264-2.0597,5.1793,0.6016c1.81,1.6884,1.5663,2.9027-0.0891,4.522
	c-6.3068,6.1697-12.5172,12.4377-18.7646,18.6681C360.5926-91.3371,359.9916-90.626,359.1178-90.4949z"/>
<path fill="#00C9A7" d="M12.8,0C5.7,0,0,5.7,0,12.8c0,7.1,5.7,12.8,12.8,12.8c7.1,0,12.8-5.7,12.8-12.8C25.6,5.7,19.9,0,12.8,0z
	 M19.5881,10.0313c-2.5864,2.5301-5.1332,5.1006-7.6953,7.6556c-0.2641,0.2634-0.5106,0.5549-0.8689,0.6087
	c-0.342-0.0231-0.5513-0.1981-0.7463-0.3918c-1.4768-1.4678-2.9456-2.9438-4.4309-4.403c-0.5326-0.5232-0.5098-0.9913,0.0316-1.4761
	c0.2286-0.2047,0.4518-0.4179,0.6575-0.6454c0.4757-0.5264,0.918-0.4658,1.3892,0.0176c0.8101,0.831,1.6678,1.6174,2.4485,2.4744
	c0.4512,0.4953,0.7252,0.4949,1.1999,0.0066c1.9508-2.0069,3.9438-3.9728,5.9272-5.9479c0.8989-0.8951,0.954-0.8447,2.124,0.2467
	C20.3668,8.8692,20.2669,9.3672,19.5881,10.0313z"/>
</svg>
