<?xml version="1.0" encoding="utf-8"?>
<!-- Generator: Adobe Illustrator 22.1.0, SVG Export Plug-In . SVG Version: 6.00 Build 0)  -->
<svg version="1.1" id="idea" xmlns="http://www.w3.org/2000/svg" xmlns:xlink="http://www.w3.org/1999/xlink" x="0px" y="0px"
	 viewBox="0 0 124 124" enable-background="new 0 0 124 124" xml:space="preserve">
<g>
	<g>
		<g>
			<path fill="#00C9A7" stroke="#FFFFFF" stroke-width="1.5" stroke-miterlimit="10" d="M115.1,49.9c-3.6-11.8-14.2-19.7-26.5-19.7
				H88c-4-10.4-14.1-17.9-25.9-17.9s-21.9,7.4-25.9,17.9h-0.6c-12.3,0-23,7.9-26.5,19.7L0.6,77.3l-0.1,46.2h2
				c5.6,0,10.6-2.6,13.9-6.6v2.7h2c5.6,0,10.6-2.6,13.9-6.6v2.7h2c9.8,0,17.9-8,17.9-17.9v-6h-4v6c0,7-5.2,12.8-11.9,13.7V99.7h-4v2
				c0,7-5.2,12.8-11.9,13.7v-11.8h-4v2c0,7-5.2,12.8-11.9,13.7V78.2l8.2-27.1c3-9.9,11.9-16.6,22.2-16.8c-0.4,1.9-0.7,3.9-0.7,5.9
				c0,8.3,3.6,15.9,9.9,21.2V64h-4v4h4v4h-4v4h4v7.9h4v4h4v-4h19.8v4h4v-4h4V76h4v-4h-4v-4h4v-4h-4v-2.6c6.3-5.3,9.9-13,9.9-21.2
				c0-2-0.2-4-0.7-5.9c10.3,0.2,19.2,6.9,22.2,16.8l8.2,27.1v41.2c-6.7-1-11.9-6.8-11.9-13.7v-2h-4v11.8c-6.7-1-11.9-6.8-11.9-13.7
				v-2h-4v11.8c-6.7-1-11.9-6.8-11.9-13.7v-6h-4v6c0,9.8,8,17.9,17.9,17.9h2v-2.7c3.3,4,8.3,6.6,13.9,6.6h2V117
				c3.3,4,8.3,6.6,13.9,6.6h2V77.9L115.1,49.9z M75.9,79.8H48.1v-4h27.8C75.9,75.8,75.9,79.8,75.9,79.8z M75.9,71.9H48.1v-4h27.8
				C75.9,67.9,75.9,71.9,75.9,71.9z M76.6,58.9l-0.8,0.6V64H64V49.9c4.5-0.9,7.9-4.9,7.9-9.7c0-5.5-4.4-9.9-9.9-9.9
				s-9.9,4.4-9.9,9.9c0,4.8,3.4,8.8,7.9,9.7V64H48.1v-4.5l-0.8-0.6c-5.8-4.6-9.2-11.4-9.2-18.7C38.2,27,48.9,16.4,62,16.4
				S85.8,27,85.8,40.2C85.8,47.5,82.5,54.3,76.6,58.9z M62,46.1c-3.3,0-6-2.7-6-6s2.7-6,6-6c3.3,0,6,2.7,6,6S65.3,46.1,62,46.1z"/>
			<polygon fill="#00C9A7" stroke="#FFFFFF" stroke-width="1.5" stroke-miterlimit="10" points="107.6,99.7 107.6,77.5 101.5,61.3 
				97.8,62.7 103.6,78.2 103.6,99.7 			"/>
			<rect x="87.8" y="67.9" fill="#00C9A7" stroke="#FFFFFF" stroke-width="1.5" stroke-miterlimit="10" width="4" height="27.8"/>
			<polygon fill="#00C9A7" stroke="#FFFFFF" stroke-width="1.5" stroke-miterlimit="10" points="16.4,99.7 20.3,99.7 20.3,78.2 
				26.2,62.7 22.4,61.3 16.4,77.5 			"/>
			<rect x="32.2" y="67.9" fill="#00C9A7" stroke="#FFFFFF" stroke-width="1.5" stroke-miterlimit="10" width="4" height="27.8"/>
			<rect x="56" y="87.8" fill="#00C9A7" stroke="#FFFFFF" stroke-width="1.5" stroke-miterlimit="10" width="4" height="27.8"/>
			<rect x="56" y="119.5" fill="#00C9A7" stroke="#FFFFFF" stroke-width="1.5" stroke-miterlimit="10" width="4" height="4"/>
			<rect x="64" y="87.8" fill="#00C9A7" stroke="#FFFFFF" stroke-width="1.5" stroke-miterlimit="10" width="4" height="23.8"/>
			<rect x="64" y="115.5" fill="#00C9A7" stroke="#FFFFFF" stroke-width="1.5" stroke-miterlimit="10" width="4" height="4"/>
			<rect x="60" y="0.5" fill="#00C9A7" stroke="#FFFFFF" stroke-width="1.5" stroke-miterlimit="10" width="4" height="7.9"/>
			
				<rect x="42.1894" y="5.2687" transform="matrix(0.866 -0.5 0.5 0.866 1.3111 23.3303)" fill="#00C9A7" stroke="#FFFFFF" stroke-width="1.5" stroke-miterlimit="10" width="3.9999" height="7.8998"/>
			
				<rect x="29.0267" y="18.3031" transform="matrix(0.5 -0.866 0.866 0.5 -3.7585 37.996)" fill="#00C9A7" stroke="#FFFFFF" stroke-width="1.5" stroke-miterlimit="10" width="3.9999" height="7.8998"/>
			
				<rect x="88.8979" y="20.333" transform="matrix(0.8661 -0.4999 0.4999 0.8661 1.2694 49.4047)" fill="#00C9A7" stroke="#FFFFFF" stroke-width="1.5" stroke-miterlimit="10" width="7.9001" height="4.0001"/>
			
				<rect x="75.9324" y="7.2674" transform="matrix(0.4999 -0.8661 0.8661 0.4999 31.9233 73.8199)" fill="#00C9A7" stroke="#FFFFFF" stroke-width="1.5" stroke-miterlimit="10" width="7.9001" height="4.0001"/>
		</g>
	</g>
</g>
</svg>
