<?xml version="1.0" encoding="utf-8"?>
<!-- Generator: Adobe Illustrator 22.1.0, SVG Export Plug-In . SVG Version: 6.00 Build 0)  -->
<svg version="1.1" id="Layer_1" xmlns="http://www.w3.org/2000/svg" xmlns:xlink="http://www.w3.org/1999/xlink" x="0px" y="0px"
	 viewBox="0 0 91.7 19.2" style="enable-background:new 0 0 91.7 19.2;" xml:space="preserve">
<style type="text/css">
	.st0{fill:#FFFFFF;}
</style>
<g>
	<path class="st0" d="M7,5.5v2.8H4.9V19H1.5V8.3H0V5.5h1.5V4.8c0-1.6,0.4-2.8,1.3-3.5C3.6,0.5,5,0.1,6.8,0.1V3
		C6.1,3,5.6,3.1,5.3,3.4C5,3.7,4.9,4.1,4.9,4.8v0.8H7z"/>
	<path class="st0" d="M10.4,17.2c-1.3-1.3-2-3-2-5s0.7-3.7,2-5c1.3-1.3,3-1.9,4.9-1.9S19,6,20.3,7.2s2,2.9,2,5s-0.7,3.7-2,5
		c-1.3,1.3-3,1.9-5,1.9C13.4,19.2,11.7,18.5,10.4,17.2z M15.3,16.3c1,0,1.8-0.4,2.5-1.1c0.7-0.7,1-1.7,1-3c0-1.3-0.3-2.3-1-3
		c-0.7-0.7-1.5-1-2.5-1s-1.8,0.3-2.4,1c-0.7,0.7-1,1.7-1,3c0,1.3,0.3,2.3,1,3C13.6,15.9,14.4,16.3,15.3,16.3z"/>
	<path class="st0" d="M35.7,5.5l-4.4,6.6l4.3,6.9h-3.8l-2.6-4.1L26.8,19h-3.4l4.3-6.6l-4.3-6.9h3.8l2.6,4.1l2.5-4.1
		C32.3,5.5,35.7,5.5,35.7,5.5z"/>
	<path class="st0" d="M43.4,19.2c-2,0-3.6-0.6-4.8-1.9c-1.2-1.3-1.8-3-1.8-5s0.6-3.8,1.9-5c1.2-1.3,2.8-1.9,4.8-1.9
		c2,0,3.6,0.6,4.8,1.8c1.3,1.2,1.9,2.9,1.9,4.9c0,0.5,0,0.9-0.1,1.3h-9.8c0.1,0.9,0.4,1.6,1,2.1c0.6,0.5,1.3,0.8,2.2,0.8
		c1.2,0,2.1-0.5,2.6-1.5h3.7c-0.4,1.3-1.1,2.3-2.3,3.1C46.3,18.8,45,19.2,43.4,19.2z M45.6,9c-0.6-0.5-1.3-0.8-2.2-0.8
		c-0.9,0-1.6,0.3-2.1,0.8c-0.6,0.5-0.9,1.2-1,2.1h6.4C46.6,10.3,46.2,9.5,45.6,9z"/>
	<path class="st0" d="M56.3,7.6c1-1.5,2.4-2.3,4.2-2.3c1.8,0,3.4,0.6,4.6,1.9c1.2,1.3,1.8,2.9,1.8,5c0,2-0.6,3.7-1.8,5
		c-1.2,1.3-2.7,1.9-4.5,1.9c-1.8,0-3.2-0.8-4.2-2.5V19h-3.4V1h3.4C56.3,1,56.3,7.6,56.3,7.6z M62.3,15.1c0.7-0.7,1.1-1.7,1.1-2.9
		c0-1.2-0.4-2.2-1.1-2.9c-0.7-0.7-1.5-1-2.5-1S58,8.6,57.3,9.3c-0.7,0.7-1.1,1.7-1.1,2.9c0,1.2,0.4,2.2,1.1,2.9
		c0.7,0.7,1.5,1.1,2.5,1.1C60.8,16.2,61.6,15.8,62.3,15.1z"/>
	<path class="st0" d="M73.3,2.1c0,0.6-0.2,1.1-0.6,1.5c-0.4,0.4-0.9,0.6-1.5,0.6c-0.6,0-1.1-0.2-1.5-0.6c-0.4-0.4-0.6-0.9-0.6-1.5
		c0-0.6,0.2-1.1,0.6-1.5C70.2,0.2,70.7,0,71.3,0s1.1,0.2,1.5,0.6C73.1,1,73.3,1.5,73.3,2.1z M69.5,19V5.5H73V19H69.5z"/>
	<path class="st0" d="M85.6,5.5v2.8l-5.7,7.8h5.7V19h-9.6v-2.8l5.7-7.8h-5.7V5.5H85.6z"/>
	<path class="st0" d="M91.7,17c0,0.6-0.2,1-0.6,1.4c-0.4,0.4-0.8,0.6-1.4,0.6s-1-0.2-1.4-0.6C88,18,87.8,17.6,87.8,17
		c0-0.6,0.2-1,0.6-1.4c0.4-0.4,0.8-0.6,1.4-0.6s1,0.2,1.4,0.6C91.5,16,91.7,16.5,91.7,17z"/>
</g>
</svg>
