<?xml version="1.0" encoding="utf-8"?>
<!-- Generator: Adobe Illustrator 22.1.0, SVG Export Plug-In . SVG Version: 6.00 Build 0)  -->
<svg version="1.1" id="Layer_1" xmlns="http://www.w3.org/2000/svg" xmlns:xlink="http://www.w3.org/1999/xlink" x="0px" y="0px"
	 viewBox="0 0 145.9 32.9" style="enable-background:new 0 0 145.9 32.9;" xml:space="preserve">
<style type="text/css">
	.st0{fill:#FFFFFF;}
</style>
<g>
	<path class="st0" d="M24.9,22.5H8.1c0.5,3.2,2.4,4.5,5.2,4.5c2.5,0,4-1,4.5-2.7l6.8,2.2c-1.4,4.3-5.6,6.4-11.3,6.4
		C4.7,32.9,0,28.2,0,20.1C0,12,4.6,7.3,12.8,7.3c8,0,12.3,4.7,12.3,12.4C25.1,20.6,25,21.9,24.9,22.5z M8.1,18h9.2
		c-0.4-3.1-1.9-4.8-4.5-4.8C10.1,13.2,8.5,14.7,8.1,18z"/>
	<path class="st0" d="M51.1,7.8l-8.8,24.6h-10L23.5,7.8h8.8l5.1,19.3l5.2-19.3H51.1z"/>
	<path class="st0" d="M74.8,22.5H58c0.5,3.2,2.4,4.5,5.2,4.5c2.5,0,4-1,4.5-2.7l6.8,2.2c-1.4,4.3-5.6,6.4-11.3,6.4
		c-8.6,0-13.3-4.7-13.3-12.8c0-8.1,4.6-12.8,12.8-12.8c8,0,12.3,4.7,12.3,12.4C75,20.6,74.9,21.9,74.8,22.5z M58,18h9.2
		c-0.4-3.1-1.9-4.8-4.5-4.8C60,13.2,58.5,14.7,58,18z"/>
	<path class="st0" d="M101.9,16v16.4h-8.4V18.3c0-3.5-1.4-4.6-3.5-4.6c-2.4,0-4.4,1.6-4.4,5.7v13h-8.4V7.8h7.5l0.2,4.7
		c1.6-3.5,4.6-5.2,8.4-5.2C98.4,7.3,101.9,10.3,101.9,16z"/>
	<path class="st0" d="M122.9,31c-1.6,1.1-4.4,1.9-6.9,1.9c-5.6,0-9-2.2-9-7.9V13.8h-4.2V7.8h4.2V2.3l8.4-2.3v7.8h7.4v5.9h-7.4v9.9
		c0,2.4,1.2,3.3,3.2,3.3c1.5,0,2.6-0.4,3.5-1.1L122.9,31z"/>
	<path class="st0" d="M122.2,28.5l4.3-4.7c1.5,2.5,4.1,3.5,7.3,3.5c2.3,0,3.7-0.7,3.7-1.7c0-0.9-1.2-1.5-4.5-2.2
		c-7.5-1.5-10.2-3.9-10.2-7.9s3.8-8.2,11.8-8.2c5.9,0,9.1,1.7,11.3,4.6l-4.5,4.4c-1.4-2.5-3.5-3.5-6.5-3.5c-2.5,0-3.7,0.9-3.7,1.9
		c0,1,1.1,1.6,4.5,2.3c7.3,1.3,10.2,3.6,10.2,7.8c0,4.5-3.8,8.1-11.7,8.1C128.8,32.9,124.7,31.6,122.2,28.5z"/>
</g>
</svg>
