<?xml version="1.0" encoding="utf-8"?>
<!-- Generator: Adobe Illustrator 22.1.0, SVG Export Plug-In . SVG Version: 6.00 Build 0)  -->
<svg version="1.1" id="Layer_1" xmlns="http://www.w3.org/2000/svg" xmlns:xlink="http://www.w3.org/1999/xlink" x="0px" y="0px"
	 viewBox="0 0 94.9 18.5" style="enable-background:new 0 0 94.9 18.5;" xml:space="preserve">
<style type="text/css">
	.st0{fill:#FFFFFF;}
</style>
<g>
	<path class="st0" d="M0.6,17.8C0.2,17.4,0,16.9,0,16.2v-14c0-0.6,0.2-1.1,0.7-1.5c0.4-0.4,1-0.5,1.7-0.5h8.2c0.4,0,0.8,0.1,1,0.4
		C11.8,0.9,12,1.3,12,1.7c0,0.4-0.1,0.8-0.4,1c-0.3,0.3-0.6,0.4-1,0.4H4v4.3h6.1c0.4,0,0.8,0.1,1,0.4c0.3,0.3,0.4,0.6,0.4,1.1
		s-0.1,0.8-0.4,1s-0.6,0.4-1,0.4H4v5.7c0,0.6-0.2,1.1-0.6,1.5S2.6,18.4,2,18.4S1,18.2,0.6,17.8z"/>
	<path class="st0" d="M17.5,18c-0.9-0.3-1.6-0.8-2.1-1.4c-0.5-0.6-0.9-1.3-1.2-2c-0.3-0.8-0.4-1.6-0.4-2.5c0-0.9,0.1-1.7,0.4-2.5
		c0.3-0.8,0.7-1.5,1.2-2.1c0.5-0.6,1.2-1.1,2.1-1.4c0.9-0.4,1.9-0.5,3-0.5c1.1,0,2.1,0.2,2.9,0.5s1.6,0.8,2.1,1.4
		c0.5,0.6,1,1.3,1.3,2.1c0.3,0.8,0.4,1.6,0.4,2.5c0,0.9-0.1,1.7-0.4,2.4c-0.3,0.8-0.7,1.4-1.2,2.1c-0.5,0.6-1.2,1.1-2.1,1.4
		c-0.9,0.4-1.9,0.5-3,0.5C19.3,18.5,18.3,18.3,17.5,18z M22.8,15.1c0.6-0.7,0.8-1.8,0.8-3.1c0-1.3-0.3-2.4-0.8-3.1
		c-0.5-0.7-1.3-1.1-2.4-1.1c-1,0-1.8,0.4-2.4,1.1c-0.5,0.7-0.8,1.8-0.8,3.1c0,1.3,0.3,2.3,0.8,3.1c0.6,0.7,1.3,1.1,2.3,1.1
		S22.2,15.9,22.8,15.1z"/>
	<path class="st0" d="M37.7,17.4l-2.8-3.2L32,17.7c-0.4,0.5-0.9,0.8-1.4,0.8c-0.4,0-0.7-0.1-1-0.4c-0.3-0.3-0.4-0.6-0.4-1
		c0-0.4,0.1-0.8,0.4-1.2l3.3-3.9L30,8.6c-0.2-0.2-0.3-0.5-0.4-0.7c-0.1-0.2-0.2-0.5-0.2-0.7c0-0.4,0.2-0.8,0.5-1.1
		c0.3-0.3,0.7-0.4,1.2-0.4c0.5,0,1,0.3,1.5,1l2.6,2.9l2.9-3.4c0.4-0.4,0.8-0.7,1.3-0.7c0.4,0,0.7,0.1,1,0.4c0.3,0.3,0.4,0.6,0.4,1
		c0,0.4-0.2,0.8-0.5,1.1l-3.2,3.8l3.2,3.7c0.4,0.5,0.6,0.9,0.6,1.3c0,0.4-0.2,0.7-0.5,1c-0.3,0.3-0.7,0.5-1.1,0.5
		C38.8,18.5,38.2,18.1,37.7,17.4z"/>
	<path class="st0" d="M47.3,14.8c0.6,0.7,1.4,1.1,2.4,1.1c0.9,0,1.7-0.2,2.5-0.6c0.2-0.1,0.4-0.2,0.6-0.2c0.1,0,0.2,0,0.3,0
		c0.1,0,0.2,0.1,0.3,0.1c0.1,0.1,0.2,0.1,0.2,0.2c0.1,0.1,0.1,0.2,0.2,0.2s0.1,0.2,0.1,0.3c0,0.1,0,0.2,0,0.3c0,0.4-0.2,0.8-0.6,1.1
		c-0.4,0.3-0.9,0.6-1.6,0.8c-0.7,0.2-1.5,0.3-2.4,0.3c-1.8,0-3.4-0.6-4.6-1.8c-1.2-1.2-1.8-2.8-1.8-4.7c0-1.2,0.3-2.3,0.8-3.3
		S45,7,46,6.4s2.1-0.9,3.3-0.9c0.8,0,1.5,0.1,2.2,0.3c0.7,0.2,1.2,0.5,1.6,0.8c0.2,0.2,0.3,0.3,0.4,0.5c0.1,0.2,0.1,0.4,0.1,0.6
		c0,0.3-0.1,0.6-0.3,0.8s-0.5,0.3-0.8,0.3c0,0-0.1,0-0.1,0c0,0-0.1,0-0.1,0c0,0-0.1,0-0.1,0c0,0-0.1,0-0.1,0c0,0-0.1,0-0.1,0
		c0,0-0.1,0-0.1-0.1c-0.8-0.4-1.5-0.6-2.2-0.6c-0.5,0-1,0.1-1.4,0.3c-0.4,0.2-0.8,0.4-1.1,0.8s-0.5,0.7-0.7,1.2
		c-0.2,0.5-0.2,1-0.2,1.6C46.4,13.2,46.7,14.1,47.3,14.8z"/>
	<path class="st0" d="M59.3,18c-0.9-0.3-1.6-0.8-2.1-1.4s-0.9-1.3-1.2-2c-0.3-0.8-0.4-1.6-0.4-2.5c0-0.9,0.1-1.7,0.4-2.5
		c0.3-0.8,0.7-1.5,1.2-2.1c0.5-0.6,1.2-1.1,2.1-1.4c0.9-0.4,1.9-0.5,3-0.5c1.1,0,2.1,0.2,2.9,0.5s1.6,0.8,2.1,1.4
		c0.5,0.6,1,1.3,1.3,2.1c0.3,0.8,0.4,1.6,0.4,2.5c0,0.9-0.1,1.7-0.4,2.4c-0.3,0.8-0.7,1.4-1.2,2.1c-0.5,0.6-1.2,1.1-2.1,1.4
		c-0.9,0.4-1.9,0.5-3,0.5C61.1,18.5,60.2,18.3,59.3,18z M64.6,15.1c0.6-0.7,0.8-1.8,0.8-3.1c0-1.3-0.3-2.4-0.8-3.1
		c-0.5-0.7-1.3-1.1-2.4-1.1s-1.8,0.4-2.4,1.1c-0.5,0.7-0.8,1.8-0.8,3.1c0,1.3,0.3,2.3,0.8,3.1c0.6,0.7,1.3,1.1,2.4,1.1
		C63.3,16.2,64.1,15.9,64.6,15.1z"/>
	<path class="st0" d="M72,17.8c-0.3-0.4-0.4-0.9-0.4-1.5V7.5c0-0.6,0.2-1,0.5-1.3c0.3-0.3,0.7-0.5,1.3-0.5c0.5,0,1,0.2,1.3,0.5
		c0.3,0.3,0.4,0.7,0.4,1.3v0.3c0.8-1.5,2.2-2.3,4.3-2.3c1.3,0,2.3,0.4,3.1,1.3c0.8,0.8,1.2,2,1.2,3.6v5.9c0,0.7-0.2,1.2-0.5,1.5
		c-0.3,0.4-0.8,0.5-1.3,0.5c-0.5,0-1-0.2-1.3-0.5c-0.3-0.4-0.4-0.9-0.4-1.5v-5.9c0-0.8-0.2-1.5-0.6-1.9c-0.4-0.4-1-0.7-1.6-0.7
		c-0.8,0-1.5,0.3-2,0.9c-0.6,0.6-0.8,1.4-0.8,2.4v5.1c0,0.7-0.2,1.2-0.5,1.5c-0.3,0.4-0.8,0.5-1.3,0.5C72.7,18.4,72.3,18.2,72,17.8z
		"/>
	<path class="st0" d="M88.3,17.8c-0.3-0.4-0.5-0.9-0.5-1.5V7.9h-1.1c-0.8,0-1.3-0.4-1.3-1.1c0-0.2,0-0.4,0.1-0.5
		c0.1-0.2,0.2-0.3,0.4-0.4c0.2-0.1,0.4-0.2,0.7-0.2h0h1.2V4.7c0-1.6,0.4-2.8,1.1-3.6C89.7,0.4,90.8,0,92.3,0h1.5
		c0.3,0,0.6,0.1,0.8,0.4s0.3,0.6,0.3,0.9S94.8,2,94.6,2.2c-0.2,0.2-0.5,0.4-0.8,0.4h-0.9c-0.6,0-1,0.2-1.3,0.5c-0.2,0.3-0.3,1-0.3,2
		v0.7h1.6c0.4,0,0.7,0.1,0.9,0.3C93.9,6.2,94,6.5,94,6.9c0,0.7-0.4,1.1-1.2,1.1h-1.5v8.4c0,0.7-0.2,1.2-0.5,1.5s-0.7,0.5-1.3,0.5
		C89,18.4,88.6,18.2,88.3,17.8z"/>
</g>
</svg>
