<?xml version="1.0" encoding="utf-8"?>
<!-- Generator: Adobe Illustrator 22.1.0, SVG Export Plug-In . SVG Version: 6.00 Build 0)  -->
<svg version="1.1" id="Layer_1" xmlns="http://www.w3.org/2000/svg" xmlns:xlink="http://www.w3.org/1999/xlink" x="0px" y="0px"
	 viewBox="0 0 99.2 15.5" style="enable-background:new 0 0 99.2 15.5;" xml:space="preserve">
<style type="text/css">
	.st0{fill:#FFFFFF;}
</style>
<g>
	<path class="st0" d="M97.8,12.7L97.8,12.7c-0.8,0-1.4-0.6-1.4-1.4v-0.7c0-0.8,0.6-1.4,1.4-1.4l0,0c0.8,0,1.4,0.6,1.4,1.4v0.7
		C99.2,12,98.6,12.7,97.8,12.7z"/>
	<g>
		<path class="st0" d="M1.4,10.2L1.4,10.2C0.6,10.2,0,9.6,0,8.8v-2C0,6,0.6,5.3,1.4,5.3l0,0c0.8,0,1.4,0.6,1.4,1.4v2
			C2.8,9.6,2.2,10.2,1.4,10.2z"/>
		<path class="st0" d="M6.3,12.3L6.3,12.3c-0.8,0-1.4-0.6-1.4-1.4V4.6c0-0.8,0.6-1.4,1.4-1.4l0,0c0.8,0,1.4,0.6,1.4,1.4v6.3
			C7.7,11.7,7.1,12.3,6.3,12.3z"/>
		<path class="st0" d="M11.2,15.5L11.2,15.5c-0.8,0-1.4-0.6-1.4-1.4V1.4c0-0.8,0.6-1.4,1.4-1.4l0,0c0.8,0,1.4,0.6,1.4,1.4v12.7
			C12.7,14.9,12,15.5,11.2,15.5z"/>
		<path class="st0" d="M16.2,15L16.2,15c-0.8,0-1.4-0.6-1.4-1.4V2c0-0.8,0.6-1.4,1.4-1.4l0,0c0.8,0,1.4,0.6,1.4,1.4v11.5
			C17.6,14.3,17,15,16.2,15z"/>
	</g>
	<g>
		<g>
			<path class="st0" d="M25.4,5c-0.6,0-1,0.2-1,0.7c0,1.6,5,0.7,5,4.1c0,1.9-1.7,2.9-3.8,2.9c-1.3,0-2.6-0.4-3.7-1
				c-0.4-0.2-0.6-0.8-0.3-1.2l0.1-0.3c0.2-0.5,0.8-0.7,1.3-0.4c0.9,0.5,1.9,0.9,2.6,0.9c0.7,0,1.2-0.3,1.2-0.8c0-1.6-5-0.6-5-4
				c0-1.8,1.5-2.9,3.8-2.9c1.1,0,2.1,0.2,3,0.6c0.5,0.2,0.7,0.8,0.4,1.2l-0.2,0.3c-0.2,0.5-0.8,0.6-1.2,0.4C26.8,5.2,26,5,25.4,5z"
				/>
		</g>
		<g>
			<path class="st0" d="M38.8,8.9c0,2.3-1.6,3.8-4,3.8c-2.4,0-4-1.5-4-3.8c0-2.3,1.6-3.8,4-3.8C37.2,5.2,38.8,6.7,38.8,8.9z M33.2,9
				c0,1.1,0.6,1.8,1.6,1.8c1,0,1.6-0.7,1.6-1.8c0-1.1-0.6-1.8-1.6-1.8C33.8,7.1,33.2,7.9,33.2,9z"/>
		</g>
		<g>
			<path class="st0" d="M47.6,5.6v6.7c0,0.2-0.1,0.3-0.3,0.3h-1.8c-0.2,0-0.3-0.1-0.3-0.3l0,0c0-0.3-0.3-0.4-0.5-0.2
				c-0.5,0.4-1.1,0.6-1.8,0.7c-1.6,0-2.6-1.1-2.6-2.8V5.6c0-0.2,0.1-0.3,0.3-0.3h1.8c0.2,0,0.3,0.1,0.3,0.3v3.6
				c0,0.8,0.5,1.3,1.2,1.3c0.9,0,1.4-0.7,1.4-1.7V5.6c0-0.2,0.1-0.3,0.3-0.3h1.8C47.5,5.2,47.6,5.4,47.6,5.6z"/>
		</g>
		<g>
			<path class="st0" d="M56.7,8v4.3c0,0.2-0.1,0.3-0.3,0.3h-1.8c-0.2,0-0.3-0.1-0.3-0.3V8.7c0-0.8-0.5-1.3-1.3-1.3
				c-0.8,0-1.3,0.6-1.4,1.4v3.6c0,0.2-0.1,0.3-0.3,0.3h-1.8c-0.2,0-0.3-0.1-0.3-0.3V5.6c0-0.2,0.1-0.3,0.3-0.3h1.8
				c0.2,0,0.3,0.1,0.3,0.3l0,0c0,0.3,0.3,0.4,0.5,0.2c0.5-0.4,1.1-0.7,1.9-0.7C55.6,5.1,56.7,6.2,56.7,8z"/>
		</g>
		<g>
			<path class="st0" d="M66.4,4v7.6c0,0.5-0.4,1-1,1h-0.5c-0.5,0-1-0.4-1-1l0,0c-0.5,0.7-1.3,1-2.2,1c-2.1,0-3.4-1.5-3.4-3.8
				c0-2.2,1.3-3.7,3.4-3.7c1,0,1.7,0.4,2.2,1V4c0-0.7,0.5-1.2,1.2-1.2l0,0C65.8,2.8,66.4,3.4,66.4,4z M63.9,9c0-1.1-0.6-1.8-1.6-1.8
				c-1,0-1.6,0.7-1.6,1.8s0.6,1.8,1.6,1.8C63.3,10.8,63.9,10,63.9,9z"/>
		</g>
		<g>
			<path class="st0" d="M76.1,5.5c0,0.6-0.2,1.1-0.6,1.5c-0.3,0.3-0.3,0.8,0.1,1.1c0.5,0.4,0.8,1.1,0.8,1.9c0,1.6-1.4,2.7-3.7,2.7
				h-4c-0.4,0-0.7-0.3-0.7-0.7v-8c0-0.4,0.3-0.7,0.7-0.7h3.8C74.7,3.1,76.1,4,76.1,5.5z M73.5,5.9c0-0.6-0.4-0.9-1.1-0.9h-1.2
				c-0.4,0-0.7,0.3-0.7,0.7v0.4c0,0.4,0.3,0.7,0.7,0.7h1.2C73.1,6.9,73.5,6.5,73.5,5.9z M73.8,9.6c0-0.6-0.5-1-1.4-1h-1.2
				c-0.4,0-0.7,0.3-0.7,0.7v0.5c0,0.4,0.3,0.7,0.7,0.7h1.2C73.3,10.7,73.8,10.3,73.8,9.6z"/>
		</g>
		<g>
			<path class="st0" d="M84.9,9.6h-3.8c-0.4,0-0.7,0.5-0.4,0.8c0.3,0.3,0.7,0.5,1.2,0.5c0.5,0,1-0.2,1.4-0.5c0.2-0.1,0.5-0.1,0.7,0
				l0.6,0.6c0.2,0.2,0.2,0.5,0,0.7c-0.7,0.6-1.7,0.9-2.8,0.9c-2.4,0-3.9-1.5-3.9-3.7c0-2.3,1.5-3.8,3.8-3.8c2.4,0,3.7,1.5,3.7,3.9
				C85.4,9.3,85.1,9.6,84.9,9.6z M82.4,8.3c0.4,0,0.6-0.4,0.4-0.7c-0.2-0.4-0.6-0.7-1.2-0.7c-0.5,0-0.9,0.2-1.2,0.6
				c-0.2,0.3,0,0.8,0.4,0.8H82.4z"/>
		</g>
		<g>
			<path class="st0" d="M94.7,8v4.3c0,0.2-0.1,0.3-0.3,0.3h-1.8c-0.2,0-0.3-0.1-0.3-0.3V8.7c0-0.8-0.5-1.3-1.3-1.3
				c-0.8,0-1.3,0.6-1.4,1.4v3.6c0,0.2-0.1,0.3-0.3,0.3h-1.8c-0.2,0-0.3-0.1-0.3-0.3V5.6c0-0.2,0.1-0.3,0.3-0.3h1.8
				c0.2,0,0.3,0.1,0.3,0.3l0,0c0,0.3,0.3,0.4,0.5,0.2c0.5-0.4,1.1-0.7,1.9-0.7C93.6,5.1,94.7,6.2,94.7,8z"/>
		</g>
	</g>
</g>
</svg>
