<?xml version="1.0" encoding="utf-8"?>
<!-- Generator: Adobe Illustrator 22.1.0, SVG Export Plug-In . SVG Version: 6.00 Build 0)  -->
<svg version="1.1" id="logo" xmlns="http://www.w3.org/2000/svg" xmlns:xlink="http://www.w3.org/1999/xlink" x="0px" y="0px"
	 viewBox="0 0 222.6709 32.3183" enable-background="new 0 0 222.6709 32.3183" xml:space="preserve">
<g>
	<path fill="#163967" d="M1.1865,30.6187C0.3955,29.7183,0,28.645,0,27.3999V4.3066c0-1.4355,0.4795-2.5122,1.4395-3.23
		C2.3984,0.3589,3.6255,0,5.1196,0h13.667c0.791,0,1.4614,0.2896,2.0103,0.8677c0.5498,0.5791,0.8242,1.2856,0.8242,2.1206
		s-0.2744,1.5347-0.8242,2.0981c-0.5488,0.5645-1.2192,0.8462-2.0103,0.8462H8.1299v6.7456h9.9756
		c0.791,0,1.4609,0.2856,2.0107,0.8569c0.5488,0.5713,0.8237,1.2817,0.8237,2.1313c0,0.835-0.2749,1.5347-0.8237,2.0986
		c-0.5498,0.564-1.2197,0.8457-2.0107,0.8457H8.1299l-0.022,8.7891c0,1.2451-0.3955,2.3184-1.1865,3.2188
		c-0.791,0.9014-1.7505,1.3516-2.8784,1.3516C2.9297,31.9702,1.9775,31.52,1.1865,30.6187z"/>
	<path fill="#163967" d="M27.2021,29.1245c-2.0801-2.0723-3.1201-4.8232-3.1201-8.2505c0-1.6113,0.249-3.0981,0.7471-4.4604
		s1.2305-2.5708,2.1973-3.6255s2.2339-1.8823,3.8013-2.4829s3.3472-0.9009,5.3394-0.9009c3.8525,0,6.8369,1.0435,8.9541,3.1313
		c2.1162,2.0869,3.1748,4.8667,3.1748,8.3384c0,1.5962-0.2529,3.0728-0.7578,4.4272c-0.5059,1.3555-1.249,2.5527-2.2305,3.5928
		s-2.252,1.8564-3.8125,2.4502c-1.5596,0.5928-3.3359,0.8896-5.3281,0.8896C32.2705,32.2339,29.2822,31.1978,27.2021,29.1245z
		 M39.8359,25.8618c0.8359-1.2012,1.2529-2.8643,1.2529-4.9878c0-2.2119-0.417-3.9146-1.2529-5.1089
		c-0.834-1.1934-2.0576-1.7905-3.6689-1.7905s-2.8311,0.5972-3.6582,1.7905c-0.8281,1.1943-1.2417,2.897-1.2417,5.1089
		c0,2.0942,0.4175,3.7495,1.2524,4.9653s2.0508,1.8242,3.6475,1.8242C37.7783,27.6636,39.002,27.063,39.8359,25.8618z"/>
	<path fill="#163967" d="M66.292,29.7729l-4.1309-4.4385l-4.5928,5.251c-0.6592,0.835-1.3838,1.3701-2.1748,1.6045
		c-0.8066,0.2637-1.5566,0.1211-2.2529-0.4287c-0.6953-0.5488-1.0508-1.2852-1.0654-2.208
		c-0.0293-0.9375,0.3145-1.8896,1.0332-2.8564l5.0752-5.6475l-4.3945-4.7456c-1.0254-1.3184-1.5459-2.4609-1.5596-3.4277
		c-0.0156-0.8496,0.2998-1.5674,0.9443-2.1533s1.4131-0.8789,2.3076-0.8789c0.3799,0,0.7793,0.1357,1.1973,0.4067
		c0.417,0.271,0.7617,0.5527,1.0322,0.8457c0.2715,0.293,0.6191,0.7031,1.0439,1.2305l3.8457,4.1748l5.0527-5.8228
		c0.6885-0.8789,1.5527-1.3184,2.5938-1.3184c0.7168,0,1.3252,0.2344,1.8232,0.7031s0.7539,1.0693,0.7686,1.8018
		c0.0293,0.8789-0.3438,1.8311-1.1201,2.8564l-5.2295,5.9766l4.9434,5.3608c0.9521,1.2598,1.4355,2.3584,1.4512,3.2959
		c0.0137,0.7617-0.2793,1.4355-0.8789,2.0215c-0.6016,0.5859-1.2969,0.8789-2.0879,0.8789
		C68.8037,32.2554,67.5947,31.4282,66.292,29.7729z"/>
	<path fill="#163967" d="M82.1562,30.9927c-1.7578-0.8281-3.1611-2.1133-4.208-3.8564c-1.0479-1.7432-1.5713-3.8525-1.5713-6.3281
		c0-2.1387,0.4795-4.0684,1.4395-5.79c0.959-1.7207,2.3213-3.0796,4.0869-4.0757c1.7646-0.9961,3.7754-1.4941,6.0312-1.4941
		c1.8018,0,3.3799,0.2856,4.7354,0.8569c1.3545,0.5713,2.4277,1.3589,3.2188,2.3623s1.3809,2.1309,1.7686,3.3838
		c0.3887,1.252,0.5898,2.6255,0.6045,4.1196c0,1.2007-0.7402,1.8013-2.2188,1.8013H83.2988
		c0.1602,3.5742,2.0791,5.3613,5.7559,5.3613c1.0254,0,2.0215-0.1973,2.9883-0.5928s1.8096-0.8936,2.5273-1.4941
		c0.5859-0.3662,1.1934-0.3955,1.8242-0.0879c0.6289,0.3076,1.0654,0.8711,1.3066,1.6914c0.2422,0.8203,0.084,1.502-0.4727,2.0439
		c-0.498,0.4395-0.9736,0.8164-1.4277,1.1318c-0.4541,0.3145-1.0508,0.6621-1.791,1.043c-0.7393,0.3809-1.5967,0.6709-2.5703,0.8682
		c-0.9746,0.1982-2.04,0.2969-3.1973,0.2969C85.9424,32.2339,83.9141,31.8198,82.1562,30.9927z M92.417,18.7866
		c-0.1025-1.6992-0.4795-3.0063-1.1318-3.9219c-0.6514-0.9155-1.7393-1.3735-3.2627-1.3735c-1.4209,0-2.5342,0.4907-3.3398,1.4722
		s-1.2529,2.2559-1.3408,3.8232H92.417z"/>
	<path fill="#163967" d="M108.9072,31.5415c-1.3398-0.4609-2.5557-1.1426-3.6475-2.043c-1.0908-0.9014-1.959-2.0986-2.6035-3.5928
		s-0.9668-3.1934-0.9668-5.0977c0-2.1973,0.5127-4.1675,1.5381-5.9106s2.4277-3.0942,4.208-4.0542
		c1.7793-0.959,3.7676-1.439,5.9648-1.439c1.4355,0,2.7764,0.1943,4.0215,0.5825s2.2188,0.8896,2.9219,1.5049
		c0.4541,0.3809,0.7656,0.8389,0.9346,1.373c0.168,0.5352,0.1934,1.0332,0.0771,1.4941c-0.1182,0.4619-0.3232,0.8789-0.6152,1.2529
		c-0.2939,0.373-0.6777,0.5928-1.1543,0.6592c-0.4756,0.0654-0.9775-0.0332-1.5049-0.2969c-1.4502-0.7471-2.7979-1.084-4.043-1.0107
		c-1.5967,0.0879-2.8564,0.6006-3.7793,1.5381s-1.3838,2.3657-1.3838,4.2847c0,1.0396,0.168,1.9849,0.5049,2.8345
		s0.9082,1.5596,1.7139,2.1309s1.7939,0.8574,2.9668,0.8574c1.3906,0,2.7754-0.3516,4.1523-1.0547
		c0.5273-0.249,1.0293-0.333,1.5049-0.2529c0.4766,0.0811,0.8604,0.3223,1.1533,0.7256c0.293,0.4023,0.502,0.8457,0.627,1.3291
		c0.124,0.4834,0.0986,1-0.0771,1.5488c-0.1758,0.5498-0.498,1.0146-0.9668,1.3955c-0.7031,0.5859-1.7285,1.0547-3.0762,1.4062
		s-2.7539,0.5273-4.2188,0.5273C111.665,32.2339,110.248,32.0034,108.9072,31.5415z"/>
	<path fill="#163967" d="M127.7051,29.1245c-2.0801-2.0723-3.1201-4.8232-3.1201-8.2505c0-1.6113,0.249-3.0981,0.7471-4.4604
		s1.2305-2.5708,2.1973-3.6255s2.2334-1.8823,3.8018-2.4829c1.5664-0.6006,3.3467-0.9009,5.3389-0.9009
		c3.8525,0,6.8369,1.0435,8.9541,3.1313c2.1162,2.0869,3.1748,4.8667,3.1748,8.3384c0,1.5962-0.2529,3.0728-0.7578,4.4272
		c-0.5059,1.3555-1.249,2.5527-2.2305,3.5928s-2.252,1.8564-3.8125,2.4502c-1.5596,0.5928-3.3359,0.8896-5.3281,0.8896
		C132.7734,32.2339,129.7852,31.1978,127.7051,29.1245z M140.3389,25.8618c0.8359-1.2012,1.2529-2.8643,1.2529-4.9878
		c0-2.2119-0.417-3.9146-1.2529-5.1089c-0.834-1.1934-2.0576-1.7905-3.6689-1.7905s-2.8311,0.5972-3.6582,1.7905
		c-0.8281,1.1943-1.2412,2.897-1.2412,5.1089c0,2.0942,0.417,3.7495,1.252,4.9653s2.0508,1.8242,3.6475,1.8242
		C138.2812,27.6636,139.5049,27.063,140.3389,25.8618z"/>
	<path fill="#163967" d="M154.0938,30.4429c-1.3477-1.1641-2.0215-2.6621-2.0215-4.4932c0-2.7246,1.0371-4.5889,3.1094-5.5918
		c2.0732-1.0034,5.709-1.5054,10.9102-1.5054v-1.3843c0-2.2559-1.1943-3.3838-3.582-3.3838c-1.7432,0-3.8604,0.5273-6.3496,1.582
		c-0.7773,0.3223-1.4619,0.1943-2.0547-0.3848c-0.5938-0.5781-0.8682-1.3071-0.8242-2.186s0.4609-1.5161,1.252-1.9116
		c1.0117-0.4834,2.3076-0.8936,3.8896-1.2305s3.083-0.5054,4.5049-0.5054c1.4492,0,2.7383,0.1646,3.8672,0.4946
		c1.127,0.3291,2.1309,0.8564,3.0098,1.582c0.8789,0.7246,1.5488,1.7139,2.0107,2.9658c0.4609,1.2529,0.6924,2.7578,0.6924,4.5156
		v9.3818c0,0.9229-0.2129,1.6992-0.6377,2.3291s-0.9414,1.0186-1.5488,1.165c-0.6084,0.1465-1.2129,0.1426-1.8135-0.0107
		c-0.6006-0.1543-1.1133-0.5498-1.5371-1.1865c-0.4258-0.6377-0.6377-1.4248-0.6377-2.3623v-0.374
		c-0.9814,2.8857-3.3398,4.3145-7.0752,4.2852C157.1631,32.2046,155.4414,31.6079,154.0938,30.4429z M164.334,26.8618
		c1.1562-1.0625,1.7354-2.3994,1.7354-4.0107v-0.8789c-0.8496,0-1.5566,0.0078-2.1201,0.0225
		c-0.5645,0.0146-1.165,0.0479-1.8018,0.0986c-0.6377,0.0518-1.1533,0.125-1.5498,0.2197
		c-0.3945,0.0957-0.7871,0.2275-1.1748,0.3955c-0.3887,0.1689-0.6855,0.374-0.8896,0.6152
		c-0.2061,0.2422-0.3701,0.5352-0.4951,0.8789c-0.124,0.3447-0.1797,0.7432-0.165,1.1973c0.0293,0.791,0.2822,1.4502,0.7588,1.9775
		c0.4756,0.5273,1.1455,0.8281,2.0107,0.9014C161.9453,28.396,163.1758,27.9233,164.334,26.8618z"/>
	<path fill="#163967" d="M184.0762,31.5415c-1.3398-0.4609-2.5557-1.1426-3.6475-2.043c-1.0908-0.9014-1.959-2.0986-2.6035-3.5928
		s-0.9668-3.1934-0.9668-5.0977c0-2.1973,0.5127-4.1675,1.5381-5.9106s2.4277-3.0942,4.208-4.0542
		c1.7793-0.959,3.7676-1.439,5.9648-1.439c1.4355,0,2.7764,0.1943,4.0215,0.5825s2.2188,0.8896,2.9219,1.5049
		c0.4541,0.3809,0.7656,0.8389,0.9346,1.373c0.168,0.5352,0.1934,1.0332,0.0771,1.4941c-0.1182,0.4619-0.3232,0.8789-0.6152,1.2529
		c-0.2939,0.373-0.6777,0.5928-1.1543,0.6592c-0.4756,0.0654-0.9775-0.0332-1.5049-0.2969c-1.4502-0.7471-2.7979-1.084-4.043-1.0107
		c-1.5967,0.0879-2.8564,0.6006-3.7793,1.5381s-1.3838,2.3657-1.3838,4.2847c0,1.0396,0.168,1.9849,0.5049,2.8345
		s0.9082,1.5596,1.7139,2.1309s1.7939,0.8574,2.9668,0.8574c1.3906,0,2.7754-0.3516,4.1523-1.0547
		c0.5273-0.249,1.0293-0.333,1.5049-0.2529c0.4766,0.0811,0.8604,0.3223,1.1533,0.7256c0.293,0.4023,0.502,0.8457,0.627,1.3291
		c0.124,0.4834,0.0986,1-0.0771,1.5488c-0.1758,0.5498-0.498,1.0146-0.9668,1.3955c-0.7031,0.5859-1.7285,1.0547-3.0762,1.4062
		s-2.7539,0.5273-4.2188,0.5273C186.834,32.2339,185.417,32.0034,184.0762,31.5415z"/>
	<path fill="#163967" d="M200.6104,27.2681l-0.0225-22.5659c0-1.5527,0.2637-2.7246,0.791-3.5156S202.7627,0,203.9502,0
		c2.416,0,3.625,1.5674,3.625,4.7021v8.4375c1.5527-2.7246,4.1816-3.9917,7.8887-3.8013c0.9668,0.0586,1.874,0.271,2.7246,0.6372
		c0.8486,0.3662,1.6104,0.8828,2.2852,1.5493c0.6729,0.6665,1.208,1.5234,1.6035,2.5703c0.3955,1.0479,0.5938,2.2231,0.5938,3.5269
		l-0.0225,9.646c0,1.5674-0.2744,2.7432-0.8242,3.5264c-0.5488,0.7842-1.4463,1.1758-2.6914,1.1758
		c-2.3145,0-3.4717-1.5674-3.4717-4.7021v-9.2505c0-1.2744-0.3301-2.2666-0.9883-2.9771c-0.6602-0.7104-1.5166-1.0659-2.5713-1.0659
		c-1.2451,0-2.3076,0.4614-3.1865,1.3843s-1.3184,2.124-1.3184,3.6035v8.3057c0,1.5674-0.2744,2.7432-0.8232,3.5264
		c-0.5498,0.7842-1.4473,1.1758-2.6924,1.1758C201.7666,31.9702,200.6104,30.4028,200.6104,27.2681z"/>
</g>
</svg>
