<?xml version="1.0" encoding="utf-8"?>
<!-- Generator: Adobe Illustrator 22.1.0, SVG Export Plug-In . SVG Version: 6.00 Build 0)  -->
<svg version="1.1" id="startup-icon" xmlns="http://www.w3.org/2000/svg" xmlns:xlink="http://www.w3.org/1999/xlink" x="0px"
	 y="0px" viewBox="0 0 124 124" enable-background="new 0 0 124 124" xml:space="preserve">
<g>
	<g>
		<g>
			<path fill="#00C9A7" stroke="#FFFFFF" stroke-width="1.5" stroke-miterlimit="10" d="M36.2,59.6v5.6L62,52.3l25.8,12.9v-5.6
				L62,5.8L36.2,59.6z M62,47.9L41.2,58.2L62,15l20.8,43.2L62,47.9z"/>
			<rect x="60" y="40.2" fill="#00C9A7" stroke="#FFFFFF" stroke-width="1.5" stroke-miterlimit="10" width="4" height="4"/>
			<rect x="60" y="32.2" fill="#00C9A7" stroke="#FFFFFF" stroke-width="1.5" stroke-miterlimit="10" width="4" height="4"/>
			<rect x="60" y="77.9" fill="#00C9A7" stroke="#FFFFFF" stroke-width="1.5" stroke-miterlimit="10" width="4" height="29.8"/>
			<rect x="60" y="58" fill="#00C9A7" stroke="#FFFFFF" stroke-width="1.5" stroke-miterlimit="10" width="4" height="15.9"/>
			<rect x="60" y="119.5" fill="#00C9A7" stroke="#FFFFFF" stroke-width="1.5" stroke-miterlimit="10" width="4" height="4"/>
			<rect x="60" y="111.6" fill="#00C9A7" stroke="#FFFFFF" stroke-width="1.5" stroke-miterlimit="10" width="4" height="4"/>
			<rect x="67.9" y="62" fill="#00C9A7" stroke="#FFFFFF" stroke-width="1.5" stroke-miterlimit="10" width="4" height="41.7"/>
			<rect x="67.9" y="107.6" fill="#00C9A7" stroke="#FFFFFF" stroke-width="1.5" stroke-miterlimit="10" width="4" height="4"/>
			<rect x="67.9" y="115.5" fill="#00C9A7" stroke="#FFFFFF" stroke-width="1.5" stroke-miterlimit="10" width="4" height="4"/>
			<rect x="52.1" y="81.8" fill="#00C9A7" stroke="#FFFFFF" stroke-width="1.5" stroke-miterlimit="10" width="4" height="21.8"/>
			<rect x="52.1" y="62" fill="#00C9A7" stroke="#FFFFFF" stroke-width="1.5" stroke-miterlimit="10" width="4" height="15.9"/>
			<rect x="52.1" y="107.6" fill="#00C9A7" stroke="#FFFFFF" stroke-width="1.5" stroke-miterlimit="10" width="4" height="4"/>
			<rect x="52.1" y="115.5" fill="#00C9A7" stroke="#FFFFFF" stroke-width="1.5" stroke-miterlimit="10" width="4" height="4"/>
			<rect x="75.9" y="91.7" fill="#00C9A7" stroke="#FFFFFF" stroke-width="1.5" stroke-miterlimit="10" width="4" height="15.9"/>
			<rect x="75.9" y="66" fill="#00C9A7" stroke="#FFFFFF" stroke-width="1.5" stroke-miterlimit="10" width="4" height="21.8"/>
			<rect x="75.9" y="111.6" fill="#00C9A7" stroke="#FFFFFF" stroke-width="1.5" stroke-miterlimit="10" width="4" height="4"/>
			<rect x="44.1" y="66" fill="#00C9A7" stroke="#FFFFFF" stroke-width="1.5" stroke-miterlimit="10" width="4" height="41.7"/>
			<rect x="44.1" y="111.6" fill="#00C9A7" stroke="#FFFFFF" stroke-width="1.5" stroke-miterlimit="10" width="4" height="4"/>
			<rect x="83.8" y="69.9" fill="#00C9A7" stroke="#FFFFFF" stroke-width="1.5" stroke-miterlimit="10" width="4" height="29.8"/>
			<rect x="83.8" y="103.6" fill="#00C9A7" stroke="#FFFFFF" stroke-width="1.5" stroke-miterlimit="10" width="4" height="4"/>
			<rect x="36.2" y="69.9" fill="#00C9A7" stroke="#FFFFFF" stroke-width="1.5" stroke-miterlimit="10" width="4" height="29.8"/>
			<rect x="36.2" y="103.6" fill="#00C9A7" stroke="#FFFFFF" stroke-width="1.5" stroke-miterlimit="10" width="4" height="4"/>
			<path fill="#00C9A7" stroke="#FFFFFF" stroke-width="1.5" stroke-miterlimit="10" d="M84,43.3l3.6,1.6
				c0.3-0.7,7.9-16.7,35.9-16.7v-4C92.8,24.3,84.3,42.6,84,43.3z"/>
			<path fill="#00C9A7" stroke="#FFFFFF" stroke-width="1.5" stroke-miterlimit="10" d="M36.4,44.9l3.6-1.6c-0.3-0.8-8.8-19-39.5-19
				v4C28.5,28.3,36.1,44.3,36.4,44.9z"/>
			<path fill="#00C9A7" stroke="#FFFFFF" stroke-width="1.5" stroke-miterlimit="10" d="M101.7,4.5v-4C80.5,0.5,76,23.7,75.9,23.9
				l3.9,0.7C79.8,24.5,83.7,4.5,101.7,4.5z"/>
			<path fill="#00C9A7" stroke="#FFFFFF" stroke-width="1.5" stroke-miterlimit="10" d="M44.2,24.7l3.9-0.7
				c0-0.2-4.5-23.4-25.8-23.4v4C40.2,4.5,44,23.8,44.2,24.7z"/>
			<rect x="10.4" y="8.4" fill="#00C9A7" stroke="#FFFFFF" stroke-width="1.5" stroke-miterlimit="10" width="4" height="4"/>
			<rect x="10.4" y="16.4" fill="#00C9A7" stroke="#FFFFFF" stroke-width="1.5" stroke-miterlimit="10" width="4" height="4"/>
			<rect x="6.5" y="12.4" fill="#00C9A7" stroke="#FFFFFF" stroke-width="1.5" stroke-miterlimit="10" width="4" height="4"/>
			<rect x="14.4" y="12.4" fill="#00C9A7" stroke="#FFFFFF" stroke-width="1.5" stroke-miterlimit="10" width="4" height="4"/>
			<rect x="99.7" y="66" fill="#00C9A7" stroke="#FFFFFF" stroke-width="1.5" stroke-miterlimit="10" width="4" height="4"/>
			<rect x="99.7" y="73.9" fill="#00C9A7" stroke="#FFFFFF" stroke-width="1.5" stroke-miterlimit="10" width="4" height="4"/>
			<rect x="95.7" y="69.9" fill="#00C9A7" stroke="#FFFFFF" stroke-width="1.5" stroke-miterlimit="10" width="4" height="4"/>
			<rect x="103.6" y="69.9" fill="#00C9A7" stroke="#FFFFFF" stroke-width="1.5" stroke-miterlimit="10" width="4" height="4"/>
			<rect x="24.3" y="77.9" fill="#00C9A7" stroke="#FFFFFF" stroke-width="1.5" stroke-miterlimit="10" width="4" height="4"/>
			<rect x="24.3" y="85.8" fill="#00C9A7" stroke="#FFFFFF" stroke-width="1.5" stroke-miterlimit="10" width="4" height="4"/>
			<rect x="20.3" y="81.8" fill="#00C9A7" stroke="#FFFFFF" stroke-width="1.5" stroke-miterlimit="10" width="4" height="4"/>
			<rect x="28.3" y="81.8" fill="#00C9A7" stroke="#FFFFFF" stroke-width="1.5" stroke-miterlimit="10" width="4" height="4"/>
			<rect x="87.8" y="18.4" fill="#00C9A7" stroke="#FFFFFF" stroke-width="1.5" stroke-miterlimit="10" width="4" height="4"/>
			<rect x="87.8" y="26.3" fill="#00C9A7" stroke="#FFFFFF" stroke-width="1.5" stroke-miterlimit="10" width="4" height="4"/>
			<rect x="83.8" y="22.3" fill="#00C9A7" stroke="#FFFFFF" stroke-width="1.5" stroke-miterlimit="10" width="4" height="4"/>
			<rect x="91.7" y="22.3" fill="#00C9A7" stroke="#FFFFFF" stroke-width="1.5" stroke-miterlimit="10" width="4" height="4"/>
			<rect x="24.3" y="48.1" fill="#00C9A7" stroke="#FFFFFF" stroke-width="1.5" stroke-miterlimit="10" width="4" height="4"/>
			<rect x="24.3" y="56" fill="#00C9A7" stroke="#FFFFFF" stroke-width="1.5" stroke-miterlimit="10" width="4" height="4"/>
			<rect x="20.3" y="52.1" fill="#00C9A7" stroke="#FFFFFF" stroke-width="1.5" stroke-miterlimit="10" width="4" height="4"/>
			<rect x="28.3" y="52.1" fill="#00C9A7" stroke="#FFFFFF" stroke-width="1.5" stroke-miterlimit="10" width="4" height="4"/>
			<rect x="115.5" y="34.2" fill="#00C9A7" stroke="#FFFFFF" stroke-width="1.5" stroke-miterlimit="10" width="4" height="4"/>
			<rect x="115.5" y="42.2" fill="#00C9A7" stroke="#FFFFFF" stroke-width="1.5" stroke-miterlimit="10" width="4" height="4"/>
			<rect x="111.6" y="38.2" fill="#00C9A7" stroke="#FFFFFF" stroke-width="1.5" stroke-miterlimit="10" width="4" height="4"/>
			<rect x="119.5" y="38.2" fill="#00C9A7" stroke="#FFFFFF" stroke-width="1.5" stroke-miterlimit="10" width="4" height="4"/>
		</g>
	</g>
</g>
</svg>
