<?xml version="1.0" encoding="utf-8"?>
<!-- Generator: Adobe Illustrator 22.1.0, SVG Export Plug-In . SVG Version: 6.00 Build 0)  -->
<svg version="1.1" id="target-icon" xmlns="http://www.w3.org/2000/svg" xmlns:xlink="http://www.w3.org/1999/xlink" x="0px"
	 y="0px" viewBox="0 0 124 124" enable-background="new 0 0 124 124" xml:space="preserve">
<g>
	<g>
		<g>
			<path fill="#00C9A7" stroke="#FFFFFF" stroke-width="1.5" stroke-miterlimit="10" d="M75.9,0.5c-26.2,0-47.6,21.4-47.6,47.6
				c0,6,1.1,11.9,3.3,17.5l-31.1,13V86l41.3-3.9l-5.9,41.4h7.5l14-31.5c5.8,2.5,12,3.7,18.4,3.7c26.2,0,47.6-21.4,47.6-47.6
				S102.1,0.5,75.9,0.5z M40.9,119.5h-0.4l6-41.9l-42,4v-0.5l65.6-27.3L40.9,119.5z M68.3,50.3l-5.5,2.3c-0.5-1.4-0.8-2.9-0.8-4.5
				c0-7.7,6.2-13.9,13.9-13.9s13.9,6.2,13.9,13.9S83.5,62,75.9,62c-1.6,0-3.2-0.3-4.7-0.8l2.4-5.5c0.7,0.2,1.5,0.4,2.3,0.4
				c4.4,0,7.9-3.6,7.9-7.9s-3.6-7.9-7.9-7.9c-4.4,0-7.9,3.6-7.9,7.9C67.9,48.9,68.1,49.6,68.3,50.3z M72,48.7c0-0.2-0.1-0.4-0.1-0.6
				c0-2.2,1.8-4,4-4s4,1.8,4,4s-1.8,4-4,4c-0.2,0-0.4,0-0.7-0.1l2.5-5.7L72,48.7z M75.9,66c9.8,0,17.9-8,17.9-17.9
				s-8-17.9-17.9-17.9S58,38.3,58,48.1c0,2.1,0.4,4.1,1.1,6l-5.5,2.3c-1-2.7-1.5-5.4-1.5-8.3c0-13.1,10.7-23.8,23.8-23.8
				S99.7,35,99.7,48.1S89,71.9,75.9,71.9c-3,0-5.9-0.6-8.7-1.7l2.4-5.4C71.6,65.6,73.7,66,75.9,66z M75.9,75.9
				c15.3,0,27.8-12.5,27.8-27.8S91.2,20.3,75.9,20.3S48.1,32.8,48.1,48.1c0,3.4,0.6,6.7,1.8,9.8l-5.5,2.3c-1.5-3.9-2.3-7.9-2.3-12.1
				c0-18.6,15.1-33.7,33.7-33.7s33.7,15.1,33.7,33.7s-15,33.7-33.6,33.7c-4.4,0-8.7-0.9-12.8-2.6l2.4-5.4
				C68.8,75.2,72.3,75.9,75.9,75.9z M75.9,91.7c-5.8,0-11.5-1.1-16.8-3.4l2.4-5.5c4.6,1.9,9.4,2.9,14.4,2.9
				c20.8,0,37.7-16.9,37.7-37.7S96.7,10.4,75.9,10.4S38.2,27.3,38.2,48.1c0,4.7,0.9,9.2,2.6,13.6L35.3,64c-2-5.1-3-10.4-3-15.9
				C32.2,24,51.8,4.5,75.9,4.5s43.6,19.6,43.6,43.6S99.9,91.7,75.9,91.7z"/>
			
				<rect x="31.4395" y="87.8047" transform="matrix(0.7071 -0.7071 0.7071 0.7071 -53.473 50.5142)" fill="#00C9A7" stroke="#FFFFFF" stroke-width="1.5" stroke-miterlimit="10" width="5.5999" height="4"/>
			
				<rect x="23.5039" y="95.6916" transform="matrix(0.7071 -0.7071 0.7071 0.7071 -61.3741 47.2129)" fill="#00C9A7" stroke="#FFFFFF" stroke-width="1.5" stroke-miterlimit="10" width="5.5999" height="4"/>
			
				<rect x="15.5702" y="103.5771" transform="matrix(0.7071 -0.7071 0.7071 0.7071 -69.2738 43.9125)" fill="#00C9A7" stroke="#FFFFFF" stroke-width="1.5" stroke-miterlimit="10" width="5.5999" height="4"/>
			
				<rect x="7.6367" y="111.6042" transform="matrix(0.7071 -0.7071 0.7071 0.7071 -77.2735 40.6538)" fill="#00C9A7" stroke="#FFFFFF" stroke-width="1.5" stroke-miterlimit="10" width="5.5999" height="4"/>
		</g>
	</g>
</g>
</svg>
